<svg width="26" height="26" viewBox="0 0 26 26" fill="none" xmlns="http://www.w3.org/2000/svg">
<path d="M13 0C9.47 0 9.027 0.015 7.64 0.078C6.257 0.141 5.312 0.362 4.485 0.683C3.61751 1.00934 2.83159 1.52088 2.182 2.182C1.5206 2.83155 1.00872 3.61746 0.682 4.485C0.362 5.312 0.143 6.257 0.079 7.64C0.015 9.027 0 9.47 0 13C0 16.53 0.015 16.973 0.078 18.36C0.141 19.743 0.362 20.688 0.683 21.515C1.015 22.37 1.459 23.095 2.182 23.818C2.83104 24.4796 3.61666 24.9915 4.484 25.318C5.312 25.639 6.257 25.858 7.64 25.922C9.027 25.985 9.47 26 13 26C16.53 26 16.973 25.985 18.36 25.922C19.743 25.859 20.688 25.638 21.515 25.317C22.3827 24.9907 23.1687 24.4788 23.818 23.817C24.4793 23.1682 24.9912 22.3829 25.318 21.516C25.639 20.688 25.858 19.743 25.922 18.36C25.985 16.973 26 16.53 26 13C26 9.47 25.985 9.027 25.922 7.64C25.859 6.257 25.638 5.312 25.317 4.485C24.9908 3.61743 24.4792 2.83149 23.818 2.182C23.1688 1.5206 22.3833 1.0087 21.516 0.682C20.688 0.361 19.743 0.142 18.36 0.078C16.973 0.015 16.53 0 13 0ZM13 2.342C16.471 2.342 16.882 2.355 18.253 2.418C19.521 2.476 20.209 2.688 20.667 2.866C21.2315 3.0746 21.7423 3.40669 22.162 3.838C22.617 4.293 22.898 4.726 23.134 5.333C23.313 5.791 23.524 6.479 23.582 7.747C23.645 9.117 23.658 9.529 23.658 13C23.658 16.471 23.645 16.882 23.582 18.253C23.524 19.521 23.312 20.209 23.134 20.667C22.9256 21.2316 22.5935 21.7424 22.162 22.162C21.7426 22.5937 21.2317 22.9258 20.667 23.134C20.209 23.312 19.521 23.524 18.253 23.582C16.883 23.645 16.472 23.658 13 23.658C9.528 23.658 9.118 23.645 7.747 23.582C6.479 23.524 5.791 23.312 5.333 23.134C4.76838 22.9256 4.25756 22.5935 3.838 22.162C3.40632 21.7426 3.07418 21.2317 2.866 20.667C2.687 20.209 2.476 19.521 2.418 18.253C2.355 16.883 2.342 16.471 2.342 13C2.342 9.529 2.355 9.118 2.418 7.747C2.476 6.479 2.688 5.791 2.866 5.333C3.0746 4.76849 3.40669 4.25772 3.838 3.838C4.25741 3.40632 4.76828 3.07418 5.333 2.866C5.791 2.687 6.479 2.476 7.747 2.418C9.117 2.355 9.529 2.342 13 2.342Z" fill="#444444"/>
<path d="M13 17.384C11.8507 17.384 10.7484 16.9275 9.93573 16.1148C9.12304 15.3021 8.66647 14.1998 8.66647 13.0505C8.66647 11.9012 9.12304 10.799 9.93573 9.98628C10.7484 9.17359 11.8507 8.71703 13 8.71703C14.1493 8.71703 15.2515 9.17359 16.0642 9.98628C16.8769 10.799 17.3335 11.9012 17.3335 13.0505C17.3335 14.1998 16.8769 15.3021 16.0642 16.1148C15.2515 16.9275 14.1493 17.384 13 17.384ZM13 6.37503C11.2294 6.37503 9.53132 7.07839 8.27933 8.33038C7.02734 9.58237 6.32397 11.2804 6.32397 13.051C6.32397 14.8216 7.02734 16.5197 8.27933 17.7717C9.53132 19.0237 11.2294 19.727 13 19.727C14.7706 19.727 16.4686 19.0237 17.7206 17.7717C18.9726 16.5197 19.676 14.8216 19.676 13.051C19.676 11.2804 18.9726 9.58237 17.7206 8.33038C16.4686 7.07839 14.7706 6.37503 13 6.37503ZM21.5 6.11103C21.5 6.52476 21.3356 6.92156 21.0431 7.21411C20.7505 7.50667 20.3537 7.67103 19.94 7.67103C19.5262 7.67103 19.1294 7.50667 18.8369 7.21411C18.5443 6.92156 18.38 6.52476 18.38 6.11103C18.38 5.69729 18.5443 5.3005 18.8369 5.00794C19.1294 4.71538 19.5262 4.55103 19.94 4.55103C20.3537 4.55103 20.7505 4.71538 21.0431 5.00794C21.3356 5.3005 21.5 5.69729 21.5 6.11103" fill="#444444"/>
</svg>
